<?xml version="1.0" encoding="UTF-8"?> <svg xmlns="http://www.w3.org/2000/svg" id="Layer_1" data-name="Layer 1" viewBox="0 0 60 40"><defs><style>.cls-1,.cls-2{fill:#ae2624;}.cls-2{fill-rule:evenodd;}</style></defs><rect class="cls-1" x="43.63" y="1.42" width="15.73" height="37.64"></rect><path class="cls-2" d="M40.45,28.38c0,8.8-6.28,11.26-19.72,11.26C6.54,39.64.64,37,.64,28V26.24H18.35v3.65c0,1.07.12,2,1.88,2,1.51,0,1.89-.53,1.89-1.93V28.6c0-2.36-1.39-2.47-5.41-3.33C4,22.59.64,19.59.64,12.94V11.55C.64,3.93,9.05.5,20.36.5,35.93.5,39.82,4.36,39.82,11.65v2.68H23.12V9.94a1.65,1.65,0,0,0-1.88-1.61,1.74,1.74,0,0,0-1.89,1.61v1.39c0,2.25,1.38,3,5,3.75,12.18,2.47,16.07,5,16.07,11.27Z"></path></svg> 